HIERARCHY
ROOT pelvis
{
  OFFSET 0 100 0
  CHANNELS 6 Xposition Yposition Zposition Zrotation Xrotation Yrotation
  JOINT pelvis_right_femur
  {
    OFFSET -10.78128 -3.44521 -0.5502486
    CHANNELS 3 Zrotation Xrotation Yrotation
    JOINT right_femur_tibia
    {
      OFFSET -0.8047443 -44.0398 -0.1307829
      CHANNELS 3 Zrotation Xrotation Yrotation
      JOINT right_tibia_foot
      {
        OFFSET 3.006224 -47.83518 -5
        CHANNELS 3 Zrotation Xrotation Yrotation
        End Site
        {
          OFFSET 0 -5 15
        }
      }
    }
  }
  JOINT pelvis_left_femur
  {
    OFFSET 10.78128 -3.44521 -0.5502486
    CHANNELS 3 Zrotation Xrotation Yrotation
    JOINT left_femur_tibia
    {
      OFFSET 0.8047443 -44.0398 -0.1307829
      CHANNELS 3 Zrotation Xrotation Yrotation
      JOINT left_tibia_foot
      {
        OFFSET -4.370144 -48.10324 -4.275266
        CHANNELS 3 Zrotation Xrotation Yrotation
        End Site
        {
          OFFSET 0 -5 15
        }
      }
    }
  }
  JOINT pelvis_spine1
  {
    OFFSET 0 6.468898 -3.129235
    CHANNELS 3 Zrotation Xrotation Yrotation
    JOINT spine1
    {
      OFFSET 0 23.15396 4.99043
      CHANNELS 3 Zrotation Xrotation Yrotation
      JOINT spine2
      {
        OFFSET 0 20.79997 -5.064912
        CHANNELS 3 Zrotation Xrotation Yrotation
        JOINT neck
        {
          OFFSET 0 14.38658 9.616178
          CHANNELS 3 Zrotation Xrotation Yrotation
          End Site
          {
            OFFSET 0 20 0
          }
        }
      }
      JOINT right_manubrium
      {
        OFFSET -5.722621 16.35077 3.967754
        CHANNELS 3 Zrotation Xrotation Yrotation
        JOINT right_clavicle
        {
          OFFSET -13.16364 1.694482 -4.693211
          CHANNELS 3 Zrotation Xrotation Yrotation
          JOINT right_humerus
          {
            OFFSET -28.5034 -0.3100689 -2.792744
            CHANNELS 3 Zrotation Xrotation Yrotation
            JOINT right_radius
            {
              OFFSET -25.15693 0.02248979 -1.271978
              CHANNELS 3 Zrotation Xrotation Yrotation
              End Site
              {
                OFFSET -15 0 0
              }
            }
          }
        }
      }
      JOINT left_manubrium
      {
        OFFSET 5.722621 16.35077 3.967754
        CHANNELS 3 Zrotation Xrotation Yrotation
        JOINT left_clavicle
        {
          OFFSET 13.16364 1.694482 -4.693211
          CHANNELS 3 Zrotation Xrotation Yrotation
          JOINT left_humerus
          {
            OFFSET 29.39168 -1.063119 -2.237045
            CHANNELS 3 Zrotation Xrotation Yrotation
            JOINT left_radius
            {
              OFFSET 24.59957 -0.9528479 0.9047498
              CHANNELS 3 Zrotation Xrotation Yrotation
              End Site
              {
                OFFSET 15 -0 -0
              }
            }
          }
        }
      }
    }
  }
}
MOTION
Frames: 13
Frame Time: 0.0416666666667
-1516.827 135.112 672.7721 1.43739 12.9358 172.438 6.551694 8.549663 0.5751255 -0 16.47298 -0 -6.068104 -4.275213 -4.827558 3.783043 -10.07587 -0.6487798 -0 20.26513 -0 6.664952 -3.263814 9.659891 2.437905 -5.174811 8.203934 -0.2916864 20.11274 -6.512364 1.823288 18.00007 -1.083751 -1.748565 -17.02253 2.047811 -2.165178 -33.82268 15.2972 93.86004 5.378196 -12.8518 -0 0 29.0095 -30.04244 22.28325 20.61996 -0.9083661 -23.8467 -13.4511 -91.24648 8.482001 36.90294 0 0 -18.86939 0.5031757 16.45147 12.7495
-1517.277 135.0487 666.5183 1.540548 12.92412 171.977 6.551694 8.549663 0.5751255 -0 16.47298 -0 -6.068104 -4.275213 -4.827558 3.783043 -10.07587 -0.6487798 -0 20.26513 -0 6.664952 -3.263814 9.659891 2.437905 -5.174811 8.203934 -0.2916864 20.11274 -6.512364 1.823288 18.00007 -1.083751 -1.748565 -17.02253 2.047811 -2.165178 -33.82268 15.2972 93.86004 5.378196 -12.8518 -0 0 29.0095 -30.04244 22.28325 20.61996 -0.9083661 -23.8467 -13.4511 -91.24648 8.482001 36.90294 0 0 -18.86939 0.5031757 16.45147 12.7495
-1517.677 134.9854 660.261 1.643602 12.91163 171.516 6.551694 8.549663 0.5751255 -0 16.47298 -0 -6.068104 -4.275213 -4.827558 3.783043 -10.07587 -0.6487798 -0 20.26513 -0 6.664952 -3.263814 9.659891 2.437905 -5.174811 8.203934 -0.2916864 20.11274 -6.512364 1.823288 18.00007 -1.083751 -1.748565 -17.02253 2.047811 -2.165178 -33.82268 15.2972 93.86004 5.378196 -12.8518 -0 0 29.0095 -30.04244 22.28325 20.61996 -0.9083661 -23.8467 -13.4511 -91.24648 8.482001 36.90294 0 0 -18.86939 0.5031757 16.45147 12.7495
-1518.029 134.922 654.0009 1.746545 12.89834 171.0551 6.551694 8.549663 0.5751255 -0 16.47298 -0 -6.068104 -4.275213 -4.827558 3.783043 -10.07587 -0.6487798 -0 20.26513 -0 6.664952 -3.263814 9.659891 2.437905 -5.174811 8.203934 -0.2916864 20.11274 -6.512364 1.823288 18.00007 -1.083751 -1.748565 -17.02253 2.047811 -2.165178 -33.82268 15.2972 93.86004 5.378196 -12.8518 -0 0 29.0095 -30.04244 22.28325 20.61996 -0.9083661 -23.8467 -13.4511 -91.24648 8.482001 36.90294 0 0 -18.86939 0.5031757 16.45147 12.7495
-1518.331 134.8587 647.7382 1.849368 12.88423 170.5942 6.551694 8.549663 0.5751255 -0 16.47298 -0 -6.068104 -4.275213 -4.827558 3.783043 -10.07587 -0.6487798 -0 20.26513 -0 6.664952 -3.263814 9.659891 2.437905 -5.174811 8.203934 -0.2916864 20.11274 -6.512364 1.823288 18.00007 -1.083751 -1.748565 -17.02253 2.047811 -2.165178 -33.82268 15.2972 93.86004 5.378196 -12.8518 -0 0 29.0095 -30.04244 22.28325 20.61996 -0.9083661 -23.8467 -13.4511 -91.24648 8.482001 36.90294 0 0 -18.86939 0.5031757 16.45147 12.7495
-1518.584 134.7954 641.4733 1.952066 12.86933 170.1334 6.551694 8.549663 0.5751255 -0 16.47298 -0 -6.068104 -4.275213 -4.827558 3.783043 -10.07587 -0.6487798 -0 20.26513 -0 6.664952 -3.263814 9.659891 2.437905 -5.174811 8.203934 -0.2916864 20.11274 -6.512364 1.823288 18.00007 -1.083751 -1.748565 -17.02253 2.047811 -2.165178 -33.82268 15.2972 93.86004 5.378196 -12.8518 -0 0 29.0095 -30.04244 22.28325 20.61996 -0.9083661 -23.8467 -13.4511 -91.24648 8.482001 36.90294 0 0 -18.86939 0.5031757 16.45147 12.7495
-1518.788 134.732 635.2066 2.054632 12.85361 169.6726 6.551694 8.549663 0.5751255 -0 16.47298 -0 -6.068104 -4.275213 -4.827558 3.783043 -10.07587 -0.6487798 -0 20.26513 -0 6.664952 -3.263814 9.659891 2.437905 -5.174811 8.203934 -0.2916864 20.11274 -6.512364 1.823288 18.00007 -1.083751 -1.748565 -17.02253 2.047811 -2.165178 -33.82268 15.2972 93.86004 5.378196 -12.8518 -0 0 29.0095 -30.04244 22.28325 20.61996 -0.9083661 -23.8467 -13.4511 -91.24648 8.482001 36.90294 0 0 -18.86939 0.5031757 16.45147 12.7495
-1518.943 134.6687 628.9385 2.157058 12.8371 169.2119 6.551694 8.549663 0.5751255 -0 16.47298 -0 -6.068104 -4.275213 -4.827558 3.783043 -10.07587 -0.6487798 -0 20.26513 -0 6.664952 -3.263814 9.659891 2.437905 -5.174811 8.203934 -0.2916864 20.11274 -6.512364 1.823288 18.00007 -1.083751 -1.748565 -17.02253 2.047811 -2.165178 -33.82268 15.2972 93.86004 5.378196 -12.8518 -0 0 29.0095 -30.04244 22.28325 20.61996 -0.9083661 -23.8467 -13.4511 -91.24648 8.482001 36.90294 0 0 -18.86939 0.5031757 16.45147 12.7495
-1519.048 134.6054 622.6694 2.259337 12.81978 168.7513 6.551694 8.549663 0.5751255 -0 16.47298 -0 -6.068104 -4.275213 -4.827558 3.783043 -10.07587 -0.6487798 -0 20.26513 -0 6.664952 -3.263814 9.659891 2.437905 -5.174811 8.203934 -0.2916864 20.11274 -6.512364 1.823288 18.00007 -1.083751 -1.748565 -17.02253 2.047811 -2.165178 -33.82268 15.2972 93.86004 5.378196 -12.8518 -0 0 29.0095 -30.04244 22.28325 20.61996 -0.9083661 -23.8467 -13.4511 -91.24648 8.482001 36.90294 0 0 -18.86939 0.5031757 16.45147 12.7495
-1519.105 134.5421 616.3996 2.361464 12.80166 168.2907 6.551694 8.549663 0.5751255 -0 16.47298 -0 -6.068104 -4.275213 -4.827558 3.783043 -10.07587 -0.6487798 -0 20.26513 -0 6.664952 -3.263814 9.659891 2.437905 -5.174811 8.203934 -0.2916864 20.11274 -6.512364 1.823288 18.00007 -1.083751 -1.748565 -17.02253 2.047811 -2.165178 -33.82268 15.2972 93.86004 5.378196 -12.8518 -0 0 29.0095 -30.04244 22.28325 20.61996 -0.9083661 -23.8467 -13.4511 -91.24648 8.482001 36.90294 0 0 -18.86939 0.5031757 16.45147 12.7495
-1519.112 134.4787 610.1296 2.46343 12.78274 167.8302 6.551694 8.549663 0.5751255 -0 16.47298 -0 -6.068104 -4.275213 -4.827558 3.783043 -10.07587 -0.6487798 -0 20.26513 -0 6.664952 -3.263814 9.659891 2.437905 -5.174811 8.203934 -0.2916864 20.11274 -6.512364 1.823288 18.00007 -1.083751 -1.748565 -17.02253 2.047811 -2.165178 -33.82268 15.2972 93.86004 5.378196 -12.8518 -0 0 29.0095 -30.04244 22.28325 20.61996 -0.9083661 -23.8467 -13.4511 -91.24648 8.482001 36.90294 0 0 -18.86939 0.5031757 16.45147 12.7495
-1519.07 134.4154 603.8597 2.565229 12.76302 167.3697 6.551694 8.549663 0.5751255 -0 16.47298 -0 -6.068104 -4.275213 -4.827558 3.783043 -10.07587 -0.6487798 -0 20.26513 -0 6.664952 -3.263814 9.659891 2.437905 -5.174811 8.203934 -0.2916864 20.11274 -6.512364 1.823288 18.00007 -1.083751 -1.748565 -17.02253 2.047811 -2.165178 -33.82268 15.2972 93.86004 5.378196 -12.8518 -0 0 29.0095 -30.04244 22.28325 20.61996 -0.9083661 -23.8467 -13.4511 -91.24648 8.482001 36.90294 0 0 -18.86939 0.5031757 16.45147 12.7495
-1518.979 134.3521 597.5904 2.666854 12.7425 166.9093 6.551694 8.549663 0.5751255 -0 16.47298 -0 -6.068104 -4.275213 -4.827558 3.783043 -10.07587 -0.6487798 -0 20.26513 -0 6.664952 -3.263814 9.659891 2.437905 -5.174811 8.203934 -0.2916864 20.11274 -6.512364 1.823288 18.00007 -1.083751 -1.748565 -17.02253 2.047811 -2.165178 -33.82268 15.2972 93.86004 5.378196 -12.8518 -0 0 29.0095 -30.04244 22.28325 20.61996 -0.9083661 -23.8467 -13.4511 -91.24648 8.482001 36.90294 0 0 -18.86939 0.5031757 16.45147 12.7495
